<svg width="250" height="310.9" version="1.1" viewBox="0 0 250 310.9" xmlns="http://www.w3.org/2000/svg">
  <g transform="translate(-84.05 -165.2)">
    <path d="m217.2 179.5c2.431 20.25.9438 42.78 12.69 60.16 6.196 4.753 21.98 20.07 20.21 18.39-6.622-15.55-27.23-19.76-26.53-39.14-2.882-12.99-4.638-26.21-6.368-39.42zm91.19 122.3c-8.89 1.344-15.43 15.68-14.79 19.67 2.587-8.355 8.44-14.32 14.79-19.67zm-222 83.37c.6283 7.297 19.75 19.91 9.182 6.679-3.534-1.533-7.397-2.705-9.182-6.679zm15.9-4.442c1.003-15.79-24.95-10.87-16.55 3.417-1.405-10.13 10.82-15.24 13.95-4.442l2.596 1.025zm-.9736 42.37c.8429 14.73-19.05 22.33-11.72 37.39 10.93 6.316 26.87 3.665 37.8-2.594 2.926-5.409-12.3-16.21-6.204-2.798-4.859 8.368-28.28 13.46-30.78-.9877 1.503-11.19 14.8-18.83 10.9-31.01zm23.37 10.25c-3.62 4.981-6.733 9.111-2.516.963 1.01-1.897.922-3.881 2.516-.963zm73.34 1.367c.0382 7.133 17.21 13.75 2.018 8.286-3.54-1.139-2.885-23.62-2.018-8.286zm-27.98.6419c6.172 16.8 25.91 18.18 40.49 16.04 7.651.1162 11.68-.9598 2.096-3.359-12.5-3.48-27.25 7.647-36.75-6.795-2.016-1.884-3.965-3.846-5.836-5.889zm-37.25-7.476c18.4 5.115 38.31 9.296 56.67 1.653 6.513-3.064 30.65 2.332 12.4-2.36-14.08-3.583-27.09 8.373-41.48 4.807-8.474-5.472-18.02-4.803-27.58-4.1zm-30.18-8.198c5.73 13.35 23.43 16.53 31.64 3.698 10.24-12.38 8.957-30.31 8.923-45.73-2.014 17.28-1.282 38.44-16.66 49.47-7.327 7.471-18.89-1.215-23.91-7.438zm126.6-111.7c-9.406 13.76-27.11 5.114-40.57 7.093-18.98-.0651-40.36 1.759-55.22 15.55-13.66 14.63-27.96 31.2-29.38 52.75-.8672 9.43-8.345 26.36-1.79 30.48-1.245-22.37 5.056-45.98 21.43-61.23 7.891-9.456 10.53-24.07 24.06-27.21 16.2-9.289 35.59-9.015 52.91-3.834 9.873-1.43 24.33-2.243 28.54-13.59zm-11.68 65.6c-1.349 13.36-15.99 23.04-10.72 37.14 4.823 17.96 17.98 32.26 20.78 51.01-.1433 16.15 23.45 12.8 27.34 14.29-7.703-.6887-15.83.0332-23.28-1.507-11.6-8.738-5.534-27.09-16.79-37.51-2.454-14.27-21.06-26.13-11.41-41.16 5.426-7.013 11.51-13.19 14.08-22.26zm42.84 41.69c-.2477 15.07-.1085 29.79 10.57 40.76 9.304 11.05-16.39 9.091-8.456 6.143 17.2 1.302-.592-17.44-5.688-22.98-1.505-8.072 1.299-16.31 3.57-23.92zm41.54-71.75c-3.345 12.72-12.2 23.18-13.31 36.56-4.167 14.98-15.35 27.49-28.84 33.5-9.079 8.513-17.72 23.01-10.75 35.87 4.403 6.655 18.38 20.59 8.762 26.65 5.18-12.19-11.46-23.78-12.98-36.56-.4402-11.82 6.841-26.77 18.51-29.54 10.35-8.544 19.54-20.75 24.61-33.62 2.896-11.6 8.066-22.65 13.99-32.86zm-63.15-19.23c15.72 1.49 21.54 20.83 37.71 20.22 6.176 2.829 23.27-2.084 24.27-4.227-12.83 4.588-27.92 6.268-39.14-3.535-6-7.228-13.81-11.42-22.85-12.46zm.4589-42.52c-4.291 12.3-12.46 25.6-5.737 38.9-4.604-14.29 4.995-25.12 5.737-38.9zm93.62 24.16c3.956 12.42-1.326 33.17-16.75 30.68 13.68-.4964 19.28-16.3 16.75-30.68zm-8.72 15.95c-.8724 14.84-25.9 24.64-31.44 9.289-1.315-6.572-.8174-12.11 1.151-2.282 3.345 15.33 25.51 8.156 28.81-4.115l.7863-1.495.6958-1.397zm-4.588-12.81c1.49 5.367 5.973 15.69 8.032 5.557 4.935-7.67-.8188-10.24-1.016-.2139-2.618.128-2.36-8.49-7.016-5.343zm-47.5-24.65c8.571-7.601 17.17.6336 16.44 10.25-.1062 3.291-20.04 2.638-16.33-9.142l-.0854-.809-.0321-.3039zm25.01-28.51c15.26 5.048 29.98 17.02 28.83 35.58 1.34 5.479 11.06 18.27 1.948 7.003-5.341-13.03-7.031-30.57-21.37-37.57-3.057-1.829-6.204-3.488-9.405-5.016zm-85.82-80.46c-8.976 20.04-2.74 43.68 5.52 62.78 4.577 11.68 16.16 17.83 21.1 29.03-4.864 6.82 6.46 15.85 4.013 5.45-3.092-7.916-8.931-17.27-16.33-24.05-16.46-19.62-20.27-48.36-14.3-73.21zm92.94 8.698c-9.689 18.94-13.34 40.82-14.47 62.09-1.111 6.872 9.57 12.04-.4432 5.563-2.871-11.37.7552-23.62 2.537-35.04 2.633-11.46 4.004-23.87 12.38-32.61zm-37.18 42.28c1.339-15.45 9.525-28.95 21.45-37.82 6.338-4.168 19.27-24.33 23.9-13.87 1.125 8.644-11.98 11.09-3.882 2.225 7.958-12.15-10.76 2.639-12.33 7.421-11.11 8.091-20.62 18.71-25.21 32.33-1.374 3.207-2.689 6.442-3.935 9.706zm5.737 27.06c-6.079-11.27-5.603-25.86-8.178-38.67-.2123-4.838-8.604-19.2-3.148-6.71 4.699 14.78 3.588 31.99 9.719 45.62.0636.2503 5.048 1.137 1.606-.2416zm-18.13 20.05c5.907-11.46 12.31-23.66 9.341-37.33-2.041-15.1-3.602-30.74-9.146-44.92-7.036-11.97-16.51-29.01-32.32-25.62-6.459.9678-14.88 14.37-3.675 5.918 13.12-7.466 26.95 5.544 32.59 17.4 10.29 18.34 8.089 40.17 6.425 60.4.6537 9.275-18.27 27.59-5.671 30.99 2.809-1.415 3.046-3.971 2.459-6.827z" fill="#808080"/>
  </g>
</svg>
